<?xml version="1.0" encoding="UTF-8"?><svg id="a" xmlns="http://www.w3.org/2000/svg" viewBox="0 0 235 235"><path d="M186.82,93.86h0c-.14-4.8-.3-8.8-1.09-12.95-3.13-16.42-12.74-26.85-28.56-31.01-5.17-1.36-10.45-1.55-15.56-1.75h-.13c-6.19-.24-12.46-.22-18.53-.21-1.77,0-3.53,0-5.3,0h-4.19c-3.14-.01-6.28-.02-9.42,0h-1.35c-6.31.06-12.84.11-19.28.93-7.08.9-13,3.02-18.08,6.5-8.86,6.06-14.27,15.01-16.09,26.6-.85,5.44-.97,10.8-1.02,16.26v1.01c-.14,13.97-.27,28.41.14,42.63.12,4.07.31,7.49.88,10.93,1.25,7.59,3.8,13.76,7.79,18.84,5.81,7.4,13.86,12.08,23.94,13.91,5.68,1.03,11.27,1.17,17.46,1.23,7.17.07,14,.13,20.67.13,7.59,0,14.96-.07,22.34-.29,3.67-.1,7.57-.26,11.47-.9,7.84-1.28,14.17-3.95,19.37-8.17,7.54-6.12,12-14.27,13.65-24.9.93-6.03.99-12.18,1.04-17.61.12-13.5.25-27.46-.14-41.2ZM170.56,146.52c-.16,2.55-.51,4.8-1.07,6.91-2.31,8.76-7.79,14.02-16.76,16.09-2.97.68-6,.9-8.84,1.03-8,.37-16.16.35-24.8.34h-2.45c-6.64.03-13.77.03-20.92-.19l-.77-.02c-4.33-.13-8.42-.26-12.47-1.16-6.93-1.55-11.77-5.06-14.8-10.75-1.75-3.29-2.73-7.1-3.06-12.02-.37-5.41-.54-11.22-.53-18.84,0-2.67,0-5.34,0-8.01,0-6.22-.01-12.65.05-18.97v-.7c.06-5.05.11-10.27.83-15.29.87-6.06,2.94-10.5,6.5-13.99,3.17-3.09,7.16-4.99,12.56-5.99,3.03-.56,6.11-.73,9.81-.81,7.91-.19,15.86-.28,23.79-.28s15.87.09,23.73.28c3.5.08,7.56.25,11.4,1.14,8.94,2.08,14.41,7.32,16.72,16.03.58,2.17.93,4.48,1.09,7.08.58,9.3.55,18.79.52,27.97,0,3.05-.02,6.11,0,9.16.03,8.5-.13,14.98-.52,21Z" fill="#fff" stroke="#0a0a0a" stroke-miterlimit="10" stroke-width="5"/><path d="M150.37,72.89h-.03c-2.42,0-4.67.92-6.34,2.59-1.67,1.67-2.59,3.93-2.59,6.35,0,4.99,3.92,8.9,8.9,8.9h0c5,0,8.92-3.9,8.94-8.88.01-4.92-3.97-8.94-8.88-8.95Z" fill="#fff" stroke="#0a0a0a" stroke-miterlimit="10" stroke-width="5"/><path d="M118.1,86.07h-.03c-8.75,0-16.96,3.39-23.11,9.54-6.17,6.16-9.56,14.39-9.56,23.16,0,18,14.66,32.65,32.66,32.66h.02c8.76,0,16.97-3.39,23.13-9.55,6.16-6.16,9.56-14.39,9.55-23.16-.01-17.99-14.66-32.64-32.66-32.66ZM136.5,118.8c0,4.92-1.92,9.54-5.39,12.99-3.48,3.46-8.11,5.37-13.06,5.37h-.05c-10.12-.03-18.33-8.31-18.32-18.46,0-4.93,1.92-9.55,5.38-13,3.47-3.46,8.11-5.36,13.06-5.36h.05c10.12.03,18.34,8.31,18.33,18.46Z" fill="#fff" stroke="#0a0a0a" stroke-miterlimit="10" stroke-width="5"/></svg>