<?xml version="1.0" encoding="UTF-8"?><svg id="a" xmlns="http://www.w3.org/2000/svg" viewBox="0 0 235 235"><path d="M118.5,123.16c-.56-.53-1.43-.53-2,0-2.75,2.56-10.46,9.87-14.14,14.46-.72.9-.04,2.23,1.11,2.18,1.53-.06,3.39-.14,4.74-.19,1-.04,1.82.76,1.82,1.76v6.27c0,.36,6.76.08,7.41.05.04,0,.07,0,.11,0,3.71.17,7.4.32,7.4-.05v-6.63c0-.8.67-1.44,1.47-1.41l4.95.2c1.22.05,1.92-1.36,1.15-2.31-3.72-4.59-11.31-11.78-14.03-14.32Z" fill="#fff" stroke="#0a0a0a" stroke-miterlimit="10" stroke-width="5.5"/><path d="M185.08,126.01c-.01-2.98-.03-5.13-.04-7.75v-.03c-.1-4.82-.37-11.31-.98-18.18-.06-.71-.72-1.18-1.42-1.09-.15.02-.31.03-.46.03-4.84,0-9.49-1.89-12.95-5.27-.73-.71-1.75-1.99-2.45-2.9-.37-.48-1.1-.45-1.44.07-.66,1.02-1.4,1.95-2.3,2.83-3.46,3.39-8.11,5.28-12.95,5.28-5.03,0-9.6-2.02-12.93-5.27-.75-.73-1.44-1.53-2.06-2.38-.52-.72-1.56-.72-2.08,0-.61.85-1.29,1.64-2.04,2.38-3.46,3.39-8.11,5.28-12.95,5.28-.18,0-.35,0-.53-.01h0c-.18,0-.35.01-.53.01-4.84,0-9.49-1.89-12.95-5.27-.63-.62-1.43-1.67-2.06-2.54-.49-.67-1.48-.65-1.96.02-.64.9-1.36,1.75-2.16,2.52-3.33,3.26-7.89,5.27-12.93,5.27-4.84,0-9.49-1.89-12.95-5.28-.6-.59-1.34-1.57-1.94-2.4-.48-.68-1.5-.71-2.01-.05-.67.88-1.45,1.68-2.24,2.46-3.46,3.38-8.11,5.28-12.95,5.27-.15,0-.31-.01-.46-.03-.7-.09-1.36.39-1.42,1.09-.62,6.87-.88,13.36-.98,18.18v.03c-.01,2.61-.03,4.76-.04,7.75.13,15.32-1.5,49.46,6.56,58.46.17.19.4.32.65.38,13.05,2.96,36.67,4.31,60.37,4.32h0c23.7,0,47.32-1.36,60.36-4.32.25-.06.48-.18.65-.38,8.06-9,6.43-43.13,6.56-58.46ZM163.33,173.52c-12.86-.48-20.24-9.4-20.9-18.72-.05-.73-.72-1.26-1.45-1.15-7.14,1.08-15.31,1.62-23.48,1.62h0c-8.17,0-16.34-.54-23.48-1.62-.73-.11-1.39.41-1.45,1.15-.66,9.32-8.05,18.24-20.9,18.72-9.09-.02-16.38-.5-10.86-20.39l7.44-26.68s.02-.07.03-.1c6.94-19.43,19.36-19.43,19.36-19.43h0c5.14.01,9.72,0,15.32,5.87.27.28.65.43,1.03.39,4.38-.44,8.93-.65,13.5-.65h0c4.56,0,9.12.21,13.5.65.39.04.77-.11,1.03-.39,5.6-5.87,10.18-5.86,15.32-5.87h0,0c2.49,0,12.43,0,19.36,19.43.01.03.02.07.03.1l7.44,26.68c5.52,19.88-1.77,20.37-10.86,20.39Z" fill="#fff" stroke="#0a0a0a" stroke-miterlimit="10" stroke-width="5.5"/><path d="M179.47,44.93c-1.75-1.42-3.9-2.23-6.15-2.31-19.99-.67-34.58-.78-55.82-.78-22.32,0-52.74.35-58.89.89h0c-6.93.69-20.64,19.86-20.77,23.98v6.83c0,8.66,8.09,16.26,15.44,16.26,6.7,0,12.56-4.22,14.98-10.06.44-1.06,1.92-1.05,2.35.02,2.36,5.83,8.06,10.04,14.76,10.04s12.26-4.21,14.56-10.02c.42-1.07,1.9-1.1,2.35-.04,2.48,5.84,8.45,10.06,15.15,10.06h.16c6.71,0,12.67-4.22,15.15-10.06.45-1.06,1.92-1.03,2.35.04,2.3,5.82,7.87,10.02,14.56,10.02s12.4-4.21,14.76-10.04c.43-1.07,1.91-1.08,2.35-.02,2.42,5.84,8.28,10.06,14.98,10.06,7.35,0,15.44-7.61,15.44-16.26v-6.83c-.11-3.58-10.42-15.88-17.69-21.78Z" fill="#fff" stroke="#0a0a0a" stroke-miterlimit="10" stroke-width="5.5"/></svg>