<?xml version="1.0" encoding="UTF-8"?><svg id="a" xmlns="http://www.w3.org/2000/svg" viewBox="0 0 1200 900"><defs><style>.d{fill:#c688eb;}.e{fill:#0a0a0a;}</style></defs><g id="b"><path class="e" d="M136.91,723.11c.69-11.93-17.44-11.93-19.75-1.39l-7.83-3.31c3.77-13.5,26.48-16,34.5-4.96,3.98,4.78,1.77,22.15,2.31,28.1-.23,3.63,3.72,3.59,6.26,2.78l-.52,6.44c-6.31,2.92-15.79-.57-14.79-8.79l1.91-.09c-3.22,13.65-30.04,13.8-29.75-1.83-.41-13.7,19.76-12.97,29.06-15.57l-.09,6.53c-5.72,1.71-26.02,2.23-17.7,12.22,2.2,1.8,6.38,1.66,9.22.91,9.91-2.12,6.67-13.78,7.18-21.05Z"/><path class="e" d="M165.7,751.04v-43.5h7.92l.87,7.83c2.7-7.35,11.22-10.43,18.44-7.83l-1.3,8.18c-8.13-3.21-17.3,2.92-16.62,12.27,0,0,0,23.05,0,23.05h-9.31Z"/><path class="e" d="M231.56,707.54v7.31h-32.62v-7.31h32.62ZM216.6,694.75v43.24c-.41,7.69,9.54,7.45,13.57,3.39l2.09,6.79c-6.04,5.02-18.32,5.64-23.14-1.44-3.61-3.58-1.15-44.27-1.83-49.37l9.31-2.61Z"/><path class="e" d="M264.27,751.91c-23.57,1.11-29.67-31.73-11.57-42.54,17.19-8.58,34.25,3.42,30.62,22.71h-34.97v-7.13h30.88l-4.61,1.39c1.26-13.34-17-16.89-21.84-5.35-2.64,6.57-2.24,17.81,4.52,21.79,5.87,3.42,15.11,1.93,18.1-4.52l7.39,3.48c-3.37,6.94-10.87,10.29-18.53,10.18Z"/><path class="e" d="M304.38,739.29c13.28,1.75,6.67,21.56-2.87,24.79l-4.35-3.74c4.15-1.51,7.8-4.79,9.05-8.96l-.35-.17c-9.45,3.84-11.25-11.97-1.48-11.92Z"/><path class="e" d="M377.2,751.91c-17.42.47-23.41-21.75-16.53-34.89,5.87-12.99,27.97-14.57,31.67.61l-1.04.96v-30.62h9.31v63.08h-8.26l-.7-11.83,1.22.09c-1.02,7.68-8.19,12.72-15.66,12.62ZM379.2,744.43c15.94.33,16.54-30.4.35-30.19-16.4-.85-16.6,30.7-.35,30.19Z"/><path class="e" d="M438.53,751.91c-23.57,1.11-29.67-31.73-11.57-42.54,17.19-8.58,34.25,3.42,30.62,22.71h-34.97v-7.13h30.88l-4.61,1.39c1.26-13.34-17-16.89-21.84-5.35-2.64,6.57-2.24,17.81,4.52,21.79,5.87,3.42,15.11,1.93,18.1-4.52l7.39,3.48c-3.37,6.94-10.87,10.29-18.53,10.18Z"/><path class="e" d="M490.56,751.91c-8.04.03-16.02-3.11-20.45-9.66l6.44-5.57c3.35,6.97,13.8,9.88,20.53,6.44,4.36-2.7,2.27-8.25-2.87-8.79-5.3-1.22-16.04-2.58-19.05-6.4-5.78-6.02-2.6-16.41,5.26-19.4,8.92-3.83,22.94-2.12,27.88,7l-6.44,5.39c-3.2-9.88-25.86-8.68-19.14,1.65.87.87,2.44,1.54,4.7,2,4.96,1.25,15.92,2.36,18.75,6.22,8.07,11.17-3.43,21.99-15.62,21.1Z"/><path class="e" d="M529.1,700.23c-8.34.64-8.39-12.26,0-11.57,8.27-.64,8.21,12.17,0,11.57ZM533.71,707.54v43.5h-9.31v-43.5h9.31Z"/><path class="e" d="M577.12,744.25c21.92.21,17.45,26.46-8,25.49-24.82,1.19-27.1-19.75-10.09-20.62l-.52,1.39c-16.34-3.12-4.74-24.62,7.74-15.66-5.36-.56-11.47,4.11-6.74,8.35,2.51,1.93,14.47.73,17.62,1.04ZM568.77,706.67c25.06-.68,25.05,30.09,0,29.41-25.41.8-24.5-30.16,0-29.41ZM569.12,762.78c12.58,1.32,20.96-10.21,6.61-10.87,0,0-14.01,0-14.01,0-5.73-.43-8.23,6.85-2.26,9.22,2.32,1.1,5.54,1.65,9.66,1.65ZM568.77,713.19c-12.36-.34-12.29,16.74,0,16.44,12.41.34,12.47-16.83,0-16.44ZM590.87,698.4l1.48,7.31c-5.1-.49-9.64,1.47-9.57,6.87l-4.52-2.09c-.26-7.07,5.59-12.61,12.62-12.09Z"/><path class="e" d="M603.92,751.04v-43.5h8.27l.61,11.31-1.22-1.22c3.36-13.03,23.28-14.76,29.93-3.83,4,5.3,1.54,30.72,2.18,37.24h-9.31v-25.32c1.07-17.61-22.78-13.04-21.14,2.18,0,0,0,23.14,0,23.14h-9.31Z"/><path class="e" d="M709.97,751.91c-18.24,1.03-26.13-19.38-11.05-29.8,5.81-3.59,15.87-5.67,19.53-12.05,2.46-4.3.4-10.7-5.35-10.27-16.85,3.34,1.65,20.31,7.39,28.01,7.11,7.39,11.76,17.47,21.93,17.31l-1.57,6.79c-12.07.01-17.47-10.16-25.84-18.97-7.63-10.44-21.69-19.93-15.4-33.19,11.69-17.61,39.87.18,21.97,16.83-5.22,4.94-17.62,6.95-21.1,14.05-7.23,21.29,32.61,19.97,29.58-9.96l7.22.44c.68,15.36-10.81,31.32-27.32,30.8Z"/><path class="e" d="M805.67,751.91c-23.57,1.11-29.67-31.73-11.57-42.54,17.19-8.58,34.25,3.42,30.62,22.71h-34.97v-7.13h30.88l-4.61,1.39c1.26-13.34-17-16.89-21.84-5.35-2.64,6.57-2.24,17.81,4.52,21.79,5.87,3.42,15.11,1.93,18.1-4.52l7.39,3.48c-3.37,6.94-10.87,10.29-18.53,10.18Z"/><path class="e" d="M857.69,751.91c-8.04.03-16.02-3.11-20.45-9.66l6.44-5.57c3.35,6.97,13.8,9.88,20.53,6.44,4.36-2.7,2.27-8.25-2.87-8.79-5.3-1.22-16.04-2.58-19.05-6.4-5.78-6.02-2.6-16.41,5.26-19.4,8.92-3.83,22.94-2.12,27.88,7l-6.44,5.39c-3.2-9.88-25.86-8.68-19.14,1.65.87.87,2.44,1.54,4.7,2,4.96,1.25,15.92,2.36,18.75,6.22,8.07,11.17-3.43,21.99-15.62,21.1Z"/><path class="e" d="M910.24,706.67c8.74-.25,16.1,4.14,18.97,12.18l-8.79,3.48c-4.66-15.29-24.31-7.77-22.45,7.05-1.2,17.23,19.89,20.52,23.05,6.7l8.44,2.87c-4.53,16.63-30.75,17.11-38.06,2.48-7.53-14.81.25-35.44,18.83-34.76Z"/><path class="e" d="M944.69,751.04v-43.5h7.92l.87,7.83c2.7-7.35,11.22-10.43,18.44-7.83l-1.3,8.18c-8.13-3.21-17.3,2.92-16.62,12.27,0,0,0,23.05,0,23.05h-9.31Z"/><path class="e" d="M989.76,700.23c-8.34.64-8.39-12.26,0-11.57,8.27-.64,8.21,12.17,0,11.57ZM994.37,707.54v43.5h-9.31v-43.5h9.31Z"/><path class="e" d="M1040.91,707.54v7.31h-32.62v-7.31h32.62ZM1025.95,694.75v43.24c-.41,7.69,9.54,7.45,13.57,3.39l2.09,6.79c-6.04,5.02-18.32,5.64-23.14-1.44-3.61-3.58-1.15-44.27-1.83-49.37l9.31-2.61Z"/><path class="e" d="M1079.89,723.11c.69-11.93-17.44-11.93-19.75-1.39l-7.83-3.31c3.77-13.5,26.48-16,34.5-4.96,3.98,4.78,1.77,22.15,2.31,28.1-.23,3.63,3.72,3.59,6.26,2.78l-.52,6.44c-6.31,2.92-15.79-.57-14.79-8.79l1.91-.09c-3.22,13.65-30.04,13.8-29.75-1.83-.41-13.7,19.76-12.97,29.06-15.57l-.09,6.53c-5.72,1.71-26.02,2.23-17.7,12.22,2.2,1.8,6.38,1.66,9.22.91,9.91-2.12,6.67-13.78,7.18-21.05Z"/><path class="d" d="M444.39,330.96c-98.41-17.13-87.84-161.93,13.68-163,20.7,0,41.4,11.46,55.07,26.61,1.85,2.59.74,5.17-1.11,7.39l-11.46,8.87c-2.59,2.22-5.18,1.48-7.02-1.11-8.5-10.72-21.44-17.37-36.59-17.37-68.5.69-77.71,98.96-11.46,113.84h-.37c17.64,4.88,36.29-.27,48.05-14.41,2.59-2.59,4.8-3.33,7.02-1.11,2.63,3.06,17.41,10.58,12.2,15.89-16.47,19.34-43.31,30.1-68.01,24.4Z"/><path class="d" d="M710.88,315.07h-.37c2.59,1.48,3.33,4.81,2.22,6.65l-6.65,12.2v-.37c-7.81,8.95-20.73-8.78-25.13-15.52v.37c-1.48-2.22-2.96-4.44-3.7-6.65-16.25,16.09-42.04,22.88-63.57,16.63-60.84-10.36-86.26-91.35-41.4-134.54,25.41-26.4,72.61-32.4,101.64-7.39v-11.46c0-2.96,1.11-5.18,4.81-5.18h14.41c2.22,0,4.81,2.22,4.81,5.18v117.91c0,9.24,4.81,17.37,12.94,22.18ZM658.03,296.22c19.25-14.79,15.86-39.03,15.89-60.25-1.48-22.55-20.7-41.03-44.72-41.03-66.57.86-75.82,95.38-11.09,109.41h-.37c14.54,3.91,28.42,1.44,40.66-8.13h-.37Z"/><path class="d" d="M991.79,231.9v94.25c0,2.96-2.22,5.18-5.17,5.18,0,0-13.68,0-13.68,0-3.33,0-5.55-2.22-5.55-5.18v-94.25c-.87-47.78-72.04-47.44-72.81,0,0,0,0,94.25,0,94.25,0,2.96-2.22,5.18-5.17,5.18h-13.68c-3.33,0-5.55-2.22-5.55-5.18v-92.77c-1.13-49.31-74.79-49.68-75.77,0,0,0,0,92.77,0,92.77,0,2.96-2.22,5.18-5.54,5.18h-13.67c-3.33,0-5.18-2.22-5.18-5.18v-114.21c0-9.24-5.54-18.11-13.3-22.55h.37c-2.22-1.11-3.33-4.81-2.22-7.02l6.65-12.2v.74c6.92-10.77,23.51,9.83,26.98,17.74,24.38-26.12,73.18-22.06,93.51,7.39,30.47-46.95,112.39-21.71,109.77,35.85Z"/><path class="d" d="M1078.29,149.85c0,3.33-2.22,5.18-5.17,5.18h-14.05c-2.95,0-5.17-1.85-5.17-5.18v-14.41c0-3.33,2.22-5.18,5.17-5.18h14.05c2.95,0,5.17,1.85,5.17,5.18v14.41ZM1078.29,326.15c0,2.96-2.22,5.18-5.17,5.18h-14.05c-2.95,0-5.17-2.22-5.17-5.18v-151.17c0-2.96,2.22-5.18,5.17-5.18h14.05c2.95,0,5.17,2.22,5.17,5.18v151.17Z"/><g id="c"><path class="d" d="M130.46,572.43c-50.19-48.78-13.55-138.64,56.92-137.13,43.19-.89,80.79,37.05,80.21,80.2,1.25,70.5-88.25,107.41-137.13,56.92ZM131.19,515.51c1.59,73.14,110.57,73.45,111.99,0-1.44-73.46-110.41-73.13-111.99,0Z"/><path class="d" d="M610.22,496.66v94.25c0,2.96-2.22,5.18-5.17,5.18,0,0-13.68,0-13.68,0-3.33,0-5.55-2.22-5.55-5.18v-94.25c-.87-47.78-72.04-47.44-72.81,0,0,0,0,94.25,0,94.25,0,2.96-2.22,5.18-5.17,5.18,0,0-13.68,0-13.68,0-3.33,0-5.55-2.22-5.55-5.18v-92.77c-1.13-49.31-74.79-49.68-75.77,0,0,0,0,92.77,0,92.77,0,2.96-2.22,5.18-5.54,5.18,0,0-13.67,0-13.67,0-3.33,0-5.18-2.22-5.18-5.18v-114.21c0-9.24-5.54-18.11-13.3-22.55h.37c-2.22-1.11-3.33-4.81-2.22-7.02l6.65-12.2v.74c6.92-10.77,23.51,9.83,26.98,17.74,24.38-26.12,73.18-22.06,93.51,7.39,30.47-46.95,112.39-21.71,109.77,35.85Z"/><path class="d" d="M694.13,414.6c0,3.33-2.21,5.18-5.17,5.18h-14.04c-2.96,0-5.18-1.85-5.18-5.18v-14.41c0-3.33,2.22-5.18,5.18-5.18h14.04c2.96,0,5.17,1.85,5.17,5.18v14.41ZM694.13,590.91c0,2.96-2.21,5.18-5.17,5.18h-14.04c-2.96,0-5.18-2.22-5.18-5.18v-151.17c0-2.96,2.22-5.18,5.18-5.18h14.04c2.96,0,5.17,2.22,5.17,5.18v151.17Z"/><path class="d" d="M762.51,596.08c-3.33,0-5.18-2.22-5.18-5.18v-245.06c0-13.3,6.65-25.87,18.11-33.63,2.22-1.11,7.02-.37,7.76,1.85v-.37c2.22,3.7,5.18,7.76,7.39,11.83h-.37c1.48,2.22.37,6.28-1.85,7.39l.37-.37c-4.81,2.59-7.02,7.76-7.02,13.3v245.06c0,2.96-2.22,5.18-5.55,5.18h-13.67Z"/><path class="d" d="M862.31,596.08c-3.33,0-5.18-2.22-5.18-5.18v-245.06c0-13.3,6.65-25.87,18.11-33.63,2.22-1.11,7.02-.37,7.76,1.85v-.37c2.22,3.7,5.18,7.76,7.39,11.83h-.37c1.48,2.22.37,6.28-1.85,7.39l.37-.37c-4.81,2.59-7.02,7.76-7.02,13.3v245.06c0,2.96-2.22,5.18-5.55,5.18h-13.67Z"/><path class="d" d="M1091.11,579.82h-.37c2.59,1.48,3.33,4.81,2.21,6.65l-6.65,12.2v-.37c-7.81,8.95-20.73-8.78-25.13-15.52v.37c-1.47-2.22-2.95-4.44-3.69-6.65-16.25,16.09-42.04,22.88-63.57,16.63-60.84-10.36-86.26-91.35-41.4-134.54,25.41-26.4,72.61-32.4,101.64-7.39v-11.46c0-2.96,1.11-5.18,4.81-5.18h14.41c2.22,0,4.81,2.22,4.81,5.18v117.91c0,9.24,4.81,17.37,12.94,22.18ZM1038.25,560.97c19.26-14.79,15.87-39.03,15.89-60.25-1.48-22.55-20.7-41.03-44.72-41.03-66.56.86-75.81,95.38-11.09,109.41h-.37c14.55,3.91,28.42,1.44,40.66-8.13h-.37Z"/><path class="d" d="M300.19,451.16c.01-8.44,10.38-2.79,10.72-11.09,0,0,0-15.15,0-15.15,0-3.33,2.22-5.55,5.54-5.55,0,0,14.05,0,14.05,0,2.96,0,5.17,2.22,5.17,5.55v15.15c2.07,24.33-33.62,39.13-35.48,25.13,0,0,0-14.04,0-14.04Z"/></g></g></svg>
