<?xml version="1.0" encoding="UTF-8"?><svg id="a" xmlns="http://www.w3.org/2000/svg" viewBox="0 0 235 235"><path d="M195.82,108.09c-.35-8.72-1.05-17.4-2.78-25.97-1.86-9.16-7.58-14.95-16.7-16.74-5.59-1.1-11.27-1.34-16.93-1.65-13.26-.74-26.54-1.08-41.42-1.07-11.56-.1-24.71.12-37.85.8-7.63.4-15.25.94-22.79,2.22-8.06,1.37-14.25,7.34-15.92,15.33-1.4,6.67-2.02,13.44-2.45,20.22-.6,9.46-.71,18.93-.26,28.4.39,8.25.92,16.51,2.79,24.58,1.94,8.4,7.21,13.64,15.71,15.39,4.91,1.01,9.92,1.33,14.92,1.67,10.42.72,20.85,1.09,31.29,1.24,17.67.25,35.33.21,52.98-.74,6.67-.36,13.33-.83,19.93-1.95,8.34-1.42,14.78-7.27,16.42-15.02,1.56-7.4,2.34-14.91,2.79-22.45.49-8.08.63-16.18.3-24.28ZM103.17,140.57c-.72.41-1.3.07-1.3-.76,0-14.81,0-29.62,0-44.43,0-1.42.03-1.44,1.24-.74,10.66,6.11,30.52,17.43,37.43,21.55,1.13.67,1.11,2.31-.03,2.96-7.41,4.25-28.24,16.2-37.34,21.41Z" fill="#fff" stroke="#0a0a0a" stroke-miterlimit="10" stroke-width="5.5"/></svg>