<?xml version="1.0" encoding="UTF-8"?><svg id="a" xmlns="http://www.w3.org/2000/svg" viewBox="0 0 2000 2000"><g id="b"><rect x="449.68" y="1237.96" width="1100.64" height="81.78" fill="none"/><path d="M536.91,1273.11c0-2.9-.8-5.15-2.39-6.74-1.6-1.59-3.79-2.39-6.57-2.39-2.61,0-4.84.61-6.7,1.83-1.86,1.22-3.22,3.19-4.09,5.92l-7.83-3.31c1.1-3.54,3.26-6.38,6.48-8.53,3.22-2.14,7.38-3.22,12.48-3.22,3.48,0,6.55.57,9.22,1.7,2.67,1.13,4.77,2.83,6.31,5.09,1.54,2.26,2.31,5.16,2.31,8.7v19.4c0,2.15,1.07,3.22,3.22,3.22,1.04,0,2.06-.14,3.04-.44l-.52,6.44c-1.33.64-3.02.96-5.05.96-1.86,0-3.52-.33-5-1-1.48-.67-2.64-1.68-3.48-3.04-.84-1.36-1.26-3.06-1.26-5.09v-.61l1.91-.09c-.52,2.26-1.6,4.13-3.22,5.61-1.62,1.48-3.51,2.58-5.66,3.31-2.15.72-4.32,1.09-6.53,1.09-2.73,0-5.18-.44-7.35-1.3-2.17-.87-3.89-2.19-5.13-3.96-1.25-1.77-1.87-3.96-1.87-6.57,0-3.25,1.06-5.92,3.17-8s5.12-3.51,9-4.26l16.88-3.31-.09,6.53-12.27,2.52c-2.44.46-4.26,1.13-5.48,2s-1.83,2.15-1.83,3.83.62,2.92,1.87,3.87c1.25.96,2.91,1.44,5,1.44,1.45,0,2.86-.17,4.22-.52,1.36-.35,2.59-.91,3.7-1.7,1.1-.78,1.96-1.8,2.57-3.04.61-1.25.91-2.74.91-4.48v-11.83Z" fill="#0a0a0a"/><path d="M565.7,1301.04v-43.5h7.92l.87,7.83c1.16-2.84,2.88-5,5.18-6.48,2.29-1.48,5.12-2.22,8.48-2.22.87,0,1.74.07,2.61.22.87.15,1.59.36,2.17.65l-1.3,8.18c-.64-.23-1.35-.42-2.13-.57-.78-.14-1.84-.22-3.18-.22-1.8,0-3.57.48-5.31,1.44s-3.18,2.39-4.31,4.31-1.7,4.35-1.7,7.31v23.05h-9.31Z" fill="#0a0a0a"/><path d="M631.56,1257.54v7.31h-32.62v-7.31h32.62ZM616.6,1244.75v43.24c0,2.15.57,3.71,1.7,4.7,1.13.99,2.65,1.48,4.57,1.48,1.57,0,2.93-.25,4.09-.74,1.16-.49,2.23-1.17,3.22-2.04l2.09,6.79c-1.33,1.16-2.97,2.07-4.92,2.74-1.94.67-4.1,1-6.48,1-2.49,0-4.78-.41-6.87-1.22-2.09-.81-3.71-2.13-4.87-3.96-1.16-1.83-1.77-4.22-1.83-7.18v-42.19l9.31-2.61Z" fill="#0a0a0a"/><path d="M664.27,1301.91c-4.35,0-8.18-.9-11.48-2.7-3.31-1.8-5.87-4.39-7.7-7.79-1.83-3.39-2.74-7.44-2.74-12.14s.91-8.74,2.74-12.14c1.83-3.39,4.36-5.99,7.61-7.79,3.25-1.8,6.93-2.7,11.05-2.7s7.83.87,10.79,2.61,5.22,4.12,6.79,7.13c1.57,3.02,2.35,6.44,2.35,10.27,0,1.04-.03,2.03-.09,2.96-.06.93-.15,1.74-.26,2.44h-34.97v-7.13h30.88l-4.61,1.39c0-3.94-.99-6.97-2.96-9.09-1.97-2.12-4.67-3.17-8.09-3.17-2.49,0-4.67.58-6.53,1.74-1.86,1.16-3.28,2.89-4.26,5.18-.99,2.29-1.48,5.09-1.48,8.4s.52,6,1.57,8.26c1.04,2.26,2.52,3.97,4.44,5.13s4.18,1.74,6.79,1.74c2.9,0,5.25-.55,7.05-1.65,1.8-1.1,3.22-2.64,4.26-4.61l7.39,3.48c-1.04,2.09-2.45,3.9-4.22,5.44-1.77,1.54-3.87,2.71-6.31,3.52-2.44.81-5.1,1.22-8,1.22Z" fill="#0a0a0a"/><path d="M704.38,1289.29c1.62,0,2.97.39,4.05,1.17,1.07.78,1.9,1.86,2.48,3.22.58,1.36.87,2.92.87,4.65,0,2.15-.41,4.22-1.22,6.22-.81,2-1.99,3.83-3.52,5.48-1.54,1.65-3.38,3-5.52,4.04l-4.35-3.74c1.57-.58,2.96-1.33,4.18-2.26,1.22-.93,2.25-1.97,3.09-3.13.84-1.16,1.43-2.35,1.78-3.57l-.35-.17c-.29.17-.62.32-1,.44-.38.12-.91.17-1.61.17-.81,0-1.64-.22-2.48-.65-.84-.44-1.55-1.09-2.13-1.96-.58-.87-.87-2-.87-3.39,0-1.28.3-2.41.91-3.39.61-.99,1.41-1.75,2.39-2.31.99-.55,2.09-.83,3.31-.83Z" fill="#0a0a0a"/><path d="M777.19,1301.91c-3.6,0-6.86-.9-9.79-2.7-2.93-1.8-5.24-4.38-6.92-7.74-1.68-3.36-2.52-7.39-2.52-12.09s.9-8.99,2.7-12.35c1.8-3.36,4.21-5.93,7.22-7.7,3.01-1.77,6.32-2.65,9.92-2.65s6.84,1.02,9.4,3.04c2.55,2.03,4.26,4.67,5.13,7.92l-1.04.96v-30.62h9.31v63.08h-8.26l-.7-11.83,1.22.09c-.41,2.61-1.36,4.86-2.87,6.74-1.51,1.89-3.38,3.34-5.61,4.35-2.23,1.01-4.63,1.52-7.18,1.52ZM779.2,1294.42c2.49,0,4.64-.64,6.44-1.91,1.8-1.27,3.19-3.07,4.18-5.39.99-2.32,1.48-5.1,1.48-8.35,0-3.01-.49-5.61-1.48-7.79-.99-2.17-2.36-3.84-4.13-5-1.77-1.16-3.81-1.74-6.13-1.74-3.89,0-6.9,1.33-9.05,4-2.15,2.67-3.22,6.35-3.22,11.05s1.04,8.4,3.13,11.09c2.09,2.7,5.02,4.04,8.79,4.04Z" fill="#0a0a0a"/><path d="M838.53,1301.91c-4.35,0-8.18-.9-11.48-2.7-3.31-1.8-5.87-4.39-7.7-7.79-1.83-3.39-2.74-7.44-2.74-12.14s.91-8.74,2.74-12.14c1.83-3.39,4.36-5.99,7.61-7.79,3.25-1.8,6.93-2.7,11.05-2.7s7.83.87,10.79,2.61,5.22,4.12,6.79,7.13c1.57,3.02,2.35,6.44,2.35,10.27,0,1.04-.03,2.03-.09,2.96-.06.93-.15,1.74-.26,2.44h-34.97v-7.13h30.88l-4.61,1.39c0-3.94-.99-6.97-2.96-9.09-1.97-2.12-4.67-3.17-8.09-3.17-2.49,0-4.67.58-6.53,1.74-1.86,1.16-3.28,2.89-4.26,5.18-.99,2.29-1.48,5.09-1.48,8.4s.52,6,1.57,8.26c1.04,2.26,2.52,3.97,4.44,5.13s4.18,1.74,6.79,1.74c2.9,0,5.25-.55,7.05-1.65,1.8-1.1,3.22-2.64,4.26-4.61l7.39,3.48c-1.04,2.09-2.45,3.9-4.22,5.44-1.77,1.54-3.87,2.71-6.31,3.52-2.44.81-5.1,1.22-8,1.22Z" fill="#0a0a0a"/><path d="M890.56,1301.91c-4.35,0-8.32-.84-11.92-2.52-3.6-1.68-6.44-4.06-8.53-7.13l6.44-5.57c1.28,2.38,3.12,4.28,5.52,5.7,2.41,1.42,5.29,2.13,8.66,2.13,2.67,0,4.79-.46,6.35-1.39,1.57-.93,2.35-2.23,2.35-3.92,0-1.1-.36-2.07-1.09-2.91-.73-.84-2.1-1.49-4.13-1.96l-9.14-1.91c-4.64-.93-7.95-2.42-9.92-4.48-1.97-2.06-2.96-4.68-2.96-7.87,0-2.38.7-4.58,2.09-6.61,1.39-2.03,3.44-3.67,6.13-4.92,2.7-1.25,5.93-1.87,9.7-1.87,4.35,0,8.06.77,11.14,2.31,3.07,1.54,5.42,3.73,7.05,6.57l-6.44,5.39c-1.1-2.32-2.73-4.05-4.87-5.18-2.15-1.13-4.38-1.7-6.7-1.7-1.86,0-3.45.23-4.79.7-1.33.46-2.35,1.1-3.04,1.91-.7.81-1.04,1.77-1.04,2.87,0,1.16.43,2.17,1.3,3.04s2.44,1.54,4.7,2l9.92,2.09c4.18.81,7.12,2.19,8.83,4.13,1.71,1.94,2.57,4.31,2.57,7.09s-.73,5.23-2.17,7.35c-1.45,2.12-3.54,3.76-6.26,4.92-2.73,1.16-5.97,1.74-9.74,1.74Z" fill="#0a0a0a"/><path d="M929.1,1250.23c-2.03,0-3.58-.51-4.65-1.52-1.07-1.01-1.61-2.45-1.61-4.31s.54-3.28,1.61-4.26c1.07-.99,2.62-1.48,4.65-1.48s3.49.49,4.57,1.48c1.07.99,1.61,2.41,1.61,4.26s-.54,3.29-1.61,4.31c-1.07,1.01-2.6,1.52-4.57,1.52ZM933.71,1257.54v43.5h-9.31v-43.5h9.31Z" fill="#0a0a0a"/><path d="M977.12,1294.25c4.41,0,7.83.97,10.27,2.92,2.44,1.94,3.65,4.62,3.65,8.05,0,3.02-.96,5.61-2.87,7.79-1.91,2.17-4.51,3.84-7.79,5-3.28,1.16-7.03,1.74-11.27,1.74-7.13,0-12.41-1.1-15.83-3.31-3.42-2.21-5.13-4.96-5.13-8.27,0-2.32.83-4.35,2.48-6.09,1.65-1.74,4.45-2.73,8.4-2.96l-.52,1.39c-2.44-.52-4.39-1.46-5.87-2.83-1.48-1.36-2.22-3.29-2.22-5.79s.96-4.61,2.87-6.35c1.91-1.74,4.61-2.75,8.09-3.04l4.87,2.35h-1.04c-2.67.23-4.55.84-5.66,1.83-1.1.99-1.65,2.09-1.65,3.31,0,1.45.54,2.52,1.61,3.22,1.07.7,2.59,1.04,4.57,1.04h13.05ZM968.77,1256.67c3.83,0,7.15.61,9.96,1.83,2.81,1.22,4.99,2.93,6.53,5.13,1.54,2.21,2.31,4.79,2.31,7.74s-.77,5.54-2.31,7.74c-1.54,2.21-3.71,3.92-6.53,5.13-2.81,1.22-6.13,1.83-9.96,1.83-6.03,0-10.66-1.35-13.88-4.05-3.22-2.7-4.83-6.25-4.83-10.66,0-2.96.78-5.54,2.35-7.74,1.57-2.2,3.75-3.92,6.57-5.13,2.81-1.22,6.08-1.83,9.79-1.83ZM969.11,1312.78c3.19,0,5.81-.3,7.87-.91,2.06-.61,3.6-1.39,4.61-2.35,1.01-.96,1.52-2.02,1.52-3.18,0-1.33-.54-2.41-1.61-3.22-1.07-.81-3-1.22-5.79-1.22h-14.01c-1.62,0-2.99.42-4.09,1.26-1.1.84-1.65,1.99-1.65,3.44,0,1.91,1.16,3.42,3.48,4.52,2.32,1.1,5.54,1.65,9.66,1.65ZM968.77,1263.19c-2.67,0-4.89.74-6.66,2.22-1.77,1.48-2.65,3.47-2.65,5.96s.88,4.5,2.65,6c1.77,1.51,3.99,2.26,6.66,2.26s4.97-.75,6.74-2.26c1.77-1.51,2.65-3.51,2.65-6s-.88-4.48-2.65-5.96c-1.77-1.48-4.02-2.22-6.74-2.22ZM990.86,1248.4l1.48,7.31c-.17,0-.35-.01-.52-.04s-.35-.04-.52-.04c-2.78,0-4.9.6-6.35,1.78-1.45,1.19-2.17,2.92-2.17,5.18l-4.52-2.09c0-2.32.49-4.39,1.48-6.22.99-1.83,2.39-3.26,4.22-4.31,1.83-1.04,3.9-1.57,6.22-1.57h.7Z" fill="#0a0a0a"/><path d="M1003.91,1301.04v-43.5h8.27l.61,11.31-1.22-1.22c.81-2.49,1.99-4.57,3.52-6.22,1.54-1.65,3.36-2.86,5.48-3.61,2.12-.75,4.36-1.13,6.74-1.13,3.07,0,5.84.6,8.31,1.78,2.46,1.19,4.42,2.97,5.87,5.35,1.45,2.38,2.18,5.39,2.18,9.05v28.19h-9.31v-25.32c0-4.29-.88-7.26-2.65-8.92-1.77-1.65-3.99-2.48-6.66-2.48-1.91,0-3.77.45-5.57,1.35s-3.29,2.33-4.48,4.31c-1.19,1.97-1.78,4.61-1.78,7.92v23.14h-9.31Z" fill="#0a0a0a"/><path d="M1109.97,1301.91c-3.89,0-7.24-.65-10.05-1.96-2.81-1.3-4.99-3.12-6.53-5.44-1.54-2.32-2.3-5.05-2.3-8.18,0-1.8.25-3.52.74-5.18.49-1.65,1.3-3.25,2.44-4.78,1.13-1.54,2.68-2.96,4.66-4.26,1.97-1.3,4.44-2.45,7.39-3.44l3.39-1.48c2.32-1.33,4.19-2.55,5.61-3.65,1.42-1.1,2.46-2.26,3.13-3.48.67-1.22,1-2.64,1-4.26,0-1.91-.58-3.39-1.74-4.44-1.16-1.04-2.7-1.57-4.61-1.57-2.26,0-3.96.62-5.09,1.87s-1.7,2.74-1.7,4.48c0,1.04.16,2.06.48,3.04.32.99.96,2.2,1.91,3.65.96,1.45,2.36,3.35,4.22,5.7,1.86,2.35,4.38,5.44,7.57,9.27,3.13,3.77,5.76,6.83,7.87,9.18,2.12,2.35,3.93,4.12,5.44,5.31,1.51,1.19,2.91,1.97,4.22,2.35,1.3.38,2.77.54,4.39.48l-1.57,6.79c-1.86,0-3.58-.19-5.18-.57-1.6-.38-3.31-1.2-5.13-2.48-1.83-1.28-3.97-3.19-6.44-5.74-2.47-2.55-5.5-5.94-9.09-10.18-3.36-3.94-6.16-7.26-8.4-9.96-2.23-2.7-3.97-4.99-5.22-6.87-1.25-1.88-2.13-3.6-2.65-5.13-.52-1.54-.78-3.18-.78-4.92,0-2.15.55-4.25,1.65-6.31,1.1-2.06,2.77-3.74,5-5.05,2.23-1.31,5.15-1.96,8.74-1.96,2.9,0,5.36.52,7.4,1.57,2.03,1.04,3.59,2.48,4.7,4.31,1.1,1.83,1.65,3.93,1.65,6.31,0,2.21-.41,4.26-1.22,6.18-.81,1.91-2.25,3.74-4.31,5.48-2.06,1.74-4.97,3.45-8.74,5.13l-2.87,1.22c-2.67,1.33-4.76,2.61-6.26,3.83-1.51,1.22-2.58,2.51-3.22,3.87-.64,1.36-.96,3-.96,4.92s.51,3.67,1.52,5.09c1.01,1.42,2.39,2.51,4.13,3.26,1.74.75,3.68,1.13,5.83,1.13,3.07,0,5.68-.54,7.83-1.61s4.15-2.57,6-4.48l1.22-1.31c1.39-2.2,2.48-4.7,3.26-7.48s1.03-5.94.74-9.48l7.22.44c.12,3.71-.36,7.31-1.44,10.79-1.07,3.48-2.71,6.61-4.92,9.4l-1.74,1.91c-2.09,2.67-4.73,4.79-7.92,6.35-3.19,1.57-6.96,2.35-11.31,2.35Z" fill="#0a0a0a"/><path d="M1205.66,1301.91c-4.35,0-8.18-.9-11.48-2.7-3.31-1.8-5.87-4.39-7.7-7.79-1.83-3.39-2.74-7.44-2.74-12.14s.91-8.74,2.74-12.14c1.83-3.39,4.36-5.99,7.61-7.79,3.25-1.8,6.93-2.7,11.05-2.7s7.83.87,10.79,2.61,5.22,4.12,6.79,7.13c1.57,3.02,2.35,6.44,2.35,10.27,0,1.04-.03,2.03-.09,2.96-.06.93-.15,1.74-.26,2.44h-34.97v-7.13h30.88l-4.61,1.39c0-3.94-.99-6.97-2.96-9.09-1.97-2.12-4.67-3.17-8.09-3.17-2.49,0-4.67.58-6.53,1.74-1.86,1.16-3.28,2.89-4.26,5.18-.99,2.29-1.48,5.09-1.48,8.4s.52,6,1.57,8.26c1.04,2.26,2.52,3.97,4.44,5.13s4.18,1.74,6.79,1.74c2.9,0,5.25-.55,7.05-1.65,1.8-1.1,3.22-2.64,4.26-4.61l7.39,3.48c-1.04,2.09-2.45,3.9-4.22,5.44-1.77,1.54-3.87,2.71-6.31,3.52-2.44.81-5.1,1.22-8,1.22Z" fill="#0a0a0a"/><path d="M1257.69,1301.91c-4.35,0-8.32-.84-11.92-2.52-3.6-1.68-6.44-4.06-8.53-7.13l6.44-5.57c1.28,2.38,3.12,4.28,5.52,5.7,2.41,1.42,5.29,2.13,8.66,2.13,2.67,0,4.79-.46,6.35-1.39,1.57-.93,2.35-2.23,2.35-3.92,0-1.1-.36-2.07-1.09-2.91-.73-.84-2.1-1.49-4.13-1.96l-9.14-1.91c-4.64-.93-7.95-2.42-9.92-4.48-1.97-2.06-2.96-4.68-2.96-7.87,0-2.38.7-4.58,2.09-6.61,1.39-2.03,3.44-3.67,6.13-4.92,2.7-1.25,5.93-1.87,9.7-1.87,4.35,0,8.06.77,11.14,2.31,3.07,1.54,5.42,3.73,7.05,6.57l-6.44,5.39c-1.1-2.32-2.73-4.05-4.87-5.18-2.15-1.13-4.38-1.7-6.7-1.7-1.86,0-3.45.23-4.79.7-1.33.46-2.35,1.1-3.04,1.91-.7.81-1.04,1.77-1.04,2.87,0,1.16.43,2.17,1.3,3.04s2.44,1.54,4.7,2l9.92,2.09c4.18.81,7.12,2.19,8.83,4.13,1.71,1.94,2.57,4.31,2.57,7.09s-.73,5.23-2.17,7.35c-1.45,2.12-3.54,3.76-6.26,4.92-2.73,1.16-5.97,1.74-9.74,1.74Z" fill="#0a0a0a"/><path d="M1310.24,1256.67c3.48,0,6.45.51,8.92,1.52,2.46,1.02,4.54,2.45,6.22,4.31,1.68,1.86,2.96,3.97,3.83,6.35l-8.79,3.48c-.75-2.67-1.96-4.71-3.61-6.13-1.65-1.42-3.81-2.13-6.48-2.13s-4.84.59-6.7,1.78c-1.86,1.19-3.26,2.91-4.22,5.18-.96,2.26-1.44,5.05-1.44,8.35s.49,6,1.48,8.26c.99,2.26,2.41,3.97,4.26,5.13,1.86,1.16,4.06,1.74,6.61,1.74,1.97,0,3.68-.33,5.13-1,1.45-.67,2.65-1.62,3.61-2.87.96-1.25,1.61-2.77,1.96-4.57l8.44,2.87c-.81,2.61-2.07,4.89-3.79,6.83-1.71,1.94-3.84,3.45-6.39,4.52-2.55,1.07-5.48,1.61-8.79,1.61-4.29,0-8.09-.9-11.4-2.7-3.31-1.8-5.87-4.39-7.7-7.79-1.83-3.39-2.74-7.44-2.74-12.14s.91-8.74,2.74-12.14c1.83-3.39,4.38-5.99,7.66-7.79,3.28-1.8,7-2.7,11.18-2.7Z" fill="#0a0a0a"/><path d="M1344.69,1301.04v-43.5h7.92l.87,7.83c1.16-2.84,2.88-5,5.18-6.48,2.29-1.48,5.12-2.22,8.48-2.22.87,0,1.74.07,2.61.22.87.15,1.59.36,2.17.65l-1.3,8.18c-.64-.23-1.35-.42-2.13-.57-.78-.14-1.84-.22-3.18-.22-1.8,0-3.57.48-5.31,1.44s-3.18,2.39-4.31,4.31-1.7,4.35-1.7,7.31v23.05h-9.31Z" fill="#0a0a0a"/><path d="M1389.75,1250.23c-2.03,0-3.58-.51-4.65-1.52-1.07-1.01-1.61-2.45-1.61-4.31s.54-3.28,1.61-4.26c1.07-.99,2.62-1.48,4.65-1.48s3.49.49,4.57,1.48c1.07.99,1.61,2.41,1.61,4.26s-.54,3.29-1.61,4.31c-1.07,1.01-2.6,1.52-4.57,1.52ZM1394.37,1257.54v43.5h-9.31v-43.5h9.31Z" fill="#0a0a0a"/><path d="M1440.91,1257.54v7.31h-32.62v-7.31h32.62ZM1425.94,1244.75v43.24c0,2.15.57,3.71,1.7,4.7,1.13.99,2.65,1.48,4.57,1.48,1.57,0,2.93-.25,4.09-.74,1.16-.49,2.23-1.17,3.22-2.04l2.09,6.79c-1.33,1.16-2.97,2.07-4.92,2.74-1.94.67-4.1,1-6.48,1-2.49,0-4.78-.41-6.87-1.22-2.09-.81-3.71-2.13-4.87-3.96-1.16-1.83-1.77-4.22-1.83-7.18v-42.19l9.31-2.61Z" fill="#0a0a0a"/><path d="M1479.88,1273.11c0-2.9-.8-5.15-2.39-6.74-1.6-1.59-3.79-2.39-6.57-2.39-2.61,0-4.84.61-6.7,1.83-1.86,1.22-3.22,3.19-4.09,5.92l-7.83-3.31c1.1-3.54,3.26-6.38,6.48-8.53,3.22-2.14,7.38-3.22,12.48-3.22,3.48,0,6.55.57,9.22,1.7,2.67,1.13,4.77,2.83,6.31,5.09,1.54,2.26,2.31,5.16,2.31,8.7v19.4c0,2.15,1.07,3.22,3.22,3.22,1.04,0,2.06-.14,3.04-.44l-.52,6.44c-1.33.64-3.02.96-5.05.96-1.86,0-3.52-.33-5-1-1.48-.67-2.64-1.68-3.48-3.04-.84-1.36-1.26-3.06-1.26-5.09v-.61l1.91-.09c-.52,2.26-1.6,4.13-3.22,5.61-1.62,1.48-3.51,2.58-5.66,3.31-2.15.72-4.32,1.09-6.53,1.09-2.73,0-5.18-.44-7.35-1.3-2.17-.87-3.89-2.19-5.13-3.96-1.25-1.77-1.87-3.96-1.87-6.57,0-3.25,1.06-5.92,3.17-8s5.12-3.51,9-4.26l16.88-3.31-.09,6.53-12.27,2.52c-2.44.46-4.26,1.13-5.48,2s-1.83,2.15-1.83,3.83.62,2.92,1.87,3.87c1.25.96,2.91,1.44,5,1.44,1.45,0,2.86-.17,4.22-.52,1.36-.35,2.59-.91,3.7-1.7,1.1-.78,1.96-1.8,2.57-3.04.61-1.25.91-2.74.91-4.48v-11.83Z" fill="#0a0a0a"/><path d="M844.39,880.96c-.74,0-1.85-.37-2.96-.74h-1.11c-17.74-3.33-34.75-13.67-46.94-28.46-10.72-14.78-18.11-33.26-18.11-51.74,0-22.18,8.5-42.51,24.02-58.03,15.52-15.52,35.49-24.03,58.77-24.03,20.7,0,41.4,11.46,55.07,26.61,1.85,2.59.74,5.17-1.11,7.39l-11.46,8.87c-2.59,2.22-5.18,1.48-7.02-1.11-8.5-10.72-21.44-17.37-36.59-17.37-31.79,0-57.29,25.87-57.29,57.66,0,26.61,19.96,50.64,45.83,56.18h-.37c.74.37,1.48.37,2.22.37.74.37,1.11.37,1.85.37,3.33.74,6.65,1.11,9.24,1.11,13.67,0,25.87-5.91,34.74-16.26,2.59-2.59,4.8-3.33,7.02-1.11l11.09,8.87c2.21,2.59,2.95,5.18,1.11,7.02-13.68,15.89-33.63,25.87-54.34,25.87-4.8,0-9.61-.37-13.67-1.48Z" fill="#c688eb"/><path d="M1110.88,865.07h-.37c2.59,1.48,3.33,4.81,2.22,6.65l-6.65,12.2v-.37c-1.48,2.22-5.18,3.33-7.39,2.22-7.02-3.7-13.31-10.35-17.74-17.74v.37c-1.48-2.22-2.96-4.44-3.7-6.65l-4.06,3.7c-12.2,9.98-27.35,15.15-42.88,15.15-4.81,0-9.61-.37-13.68-1.48-1.11,0-1.85.37-2.95-.74h-.37c-17.37-3.33-34-13.68-46.2-27.72-10.72-13.68-17.74-32.16-17.74-50.27,0-21.81,7.76-41.4,22.92-56.55,15.52-15.52,35.11-23.29,58.03-23.29,16.26,0,31.05,5.54,43.61,15.89v-11.46c0-2.96,1.11-5.18,4.81-5.18h14.41c2.22,0,4.81,2.22,4.81,5.18v117.91c0,9.24,4.81,17.37,12.94,22.18ZM1058.03,846.22c9.24-7.76,15.16-18.85,15.89-31.05v-29.2c-1.48-22.55-20.7-41.03-44.72-41.03-30.68,0-55.81,25.13-55.81,55.44,0,25.87,19.59,48.79,44.72,53.96h-.37c.74.37,1.48.37,2.21.37q.74.37,1.48.37c3.33.74,6.65,1.11,8.87,1.11,9.98,0,19.59-3.33,28.09-9.98h-.37Z" fill="#c688eb"/><path d="M1391.79,781.9v94.25c0,2.96-2.22,5.18-5.17,5.18h-13.68c-3.33,0-5.55-2.22-5.55-5.18v-94.25c0-19.96-16.26-36.22-36.22-36.22s-36.59,16.26-36.59,36.22v94.25c0,2.96-2.22,5.18-5.17,5.18h-13.68c-3.33,0-5.55-2.22-5.55-5.18v-92.77c0-20.7-17.37-37.7-38.07-37.7s-37.7,17-37.7,37.7v92.77c0,2.96-2.22,5.18-5.54,5.18h-13.67c-3.33,0-5.18-2.22-5.18-5.18v-114.21c0-9.24-5.54-18.11-13.3-22.55h.37c-2.22-1.11-3.33-4.81-2.22-7.02l6.65-12.2v.74c1.11-3.33,5.91-3.7,8.87-2.22,7.39,4.81,13.67,10.72,18.11,19.96,11.46-11.83,26.24-17.37,43.61-17.37,20.33,0,38.07,8.87,49.9,24.76,10.35-15.89,28.83-24.76,49.16-24.76,33.63,0,60.62,26.61,60.62,60.62Z" fill="#c688eb"/><path d="M1478.29,699.85c0,3.33-2.22,5.18-5.17,5.18h-14.05c-2.95,0-5.17-1.85-5.17-5.18v-14.41c0-3.33,2.22-5.18,5.17-5.18h14.05c2.95,0,5.17,1.85,5.17,5.18v14.41ZM1478.29,876.15c0,2.96-2.22,5.18-5.17,5.18h-14.05c-2.95,0-5.17-2.22-5.17-5.18v-151.17c0-2.96,2.22-5.18,5.17-5.18h14.05c2.95,0,5.17,2.22,5.17,5.18v151.17Z" fill="#c688eb"/><g id="c"><path d="M530.46,1122.43c-15.16-15.15-23.29-35.11-23.29-56.92s8.13-41.4,23.29-56.55c15.15-15.52,35.11-23.66,56.92-23.66s41.4,8.13,56.55,23.66c15.15,15.15,23.66,34.74,23.66,56.55s-8.5,41.77-23.66,56.92c-14.79,15.52-34.75,23.29-56.55,23.29s-41.77-7.76-56.92-23.29ZM531.19,1065.51c0,30.68,25.5,55.81,56.18,55.81s55.81-25.13,55.81-55.81-25.13-55.81-55.81-55.81-56.18,25.13-56.18,55.81Z" fill="#c688eb"/><path d="M1010.22,1046.66v94.25c0,2.96-2.22,5.18-5.17,5.18h-13.68c-3.33,0-5.55-2.22-5.55-5.18v-94.25c0-19.96-16.26-36.22-36.22-36.22s-36.59,16.26-36.59,36.22v94.25c0,2.96-2.22,5.18-5.17,5.18h-13.68c-3.33,0-5.55-2.22-5.55-5.18v-92.77c0-20.7-17.37-37.7-38.07-37.7s-37.7,17-37.7,37.7v92.77c0,2.96-2.22,5.18-5.54,5.18h-13.67c-3.33,0-5.18-2.22-5.18-5.18v-114.21c0-9.24-5.54-18.11-13.3-22.55h.37c-2.22-1.11-3.33-4.81-2.22-7.02l6.65-12.2v.74c1.11-3.33,5.91-3.7,8.87-2.22,7.39,4.81,13.67,10.72,18.11,19.96,11.46-11.83,26.24-17.37,43.61-17.37,20.33,0,38.07,8.87,49.9,24.76,10.35-15.89,28.83-24.76,49.16-24.76,33.63,0,60.62,26.61,60.62,60.62Z" fill="#c688eb"/><path d="M1094.13,964.6c0,3.33-2.21,5.18-5.17,5.18h-14.04c-2.96,0-5.18-1.85-5.18-5.18v-14.41c0-3.33,2.22-5.18,5.18-5.18h14.04c2.96,0,5.17,1.85,5.17,5.18v14.41ZM1094.13,1140.91c0,2.96-2.21,5.18-5.17,5.18h-14.04c-2.96,0-5.18-2.22-5.18-5.18v-151.17c0-2.96,2.22-5.18,5.18-5.18h14.04c2.96,0,5.17,2.22,5.17,5.18v151.17Z" fill="#c688eb"/><path d="M1162.51,1146.08c-3.33,0-5.18-2.22-5.18-5.18v-245.06c0-13.3,6.65-25.87,18.11-33.63,2.22-1.11,7.02-.37,7.76,1.85v-.37c2.22,3.7,5.18,7.76,7.39,11.83h-.37c1.48,2.22.37,6.28-1.85,7.39l.37-.37c-4.81,2.59-7.02,7.76-7.02,13.3v245.06c0,2.96-2.22,5.18-5.55,5.18h-13.67Z" fill="#c688eb"/><path d="M1262.31,1146.08c-3.33,0-5.18-2.22-5.18-5.18v-245.06c0-13.3,6.65-25.87,18.11-33.63,2.22-1.11,7.02-.37,7.76,1.85v-.37c2.22,3.7,5.18,7.76,7.39,11.83h-.37c1.48,2.22.37,6.28-1.85,7.39l.37-.37c-4.81,2.59-7.02,7.76-7.02,13.3v245.06c0,2.96-2.22,5.18-5.55,5.18h-13.67Z" fill="#c688eb"/><path d="M1491.11,1129.82h-.37c2.59,1.48,3.33,4.81,2.21,6.65l-6.65,12.2v-.37c-1.48,2.22-5.17,3.33-7.39,2.22-7.02-3.7-13.3-10.35-17.74-17.74v.37c-1.47-2.22-2.95-4.44-3.69-6.65l-4.07,3.7c-12.2,9.98-27.35,15.15-42.88,15.15-4.81,0-9.61-.37-13.67-1.48-1.11,0-1.85.37-2.96-.74h-.37c-17.37-3.33-34-13.68-46.2-27.72-10.72-13.68-17.74-32.16-17.74-50.27,0-21.81,7.76-41.4,22.92-56.55,15.52-15.52,35.11-23.29,58.03-23.29,16.26,0,31.05,5.54,43.62,15.89v-11.46c0-2.96,1.11-5.18,4.81-5.18h14.41c2.22,0,4.81,2.22,4.81,5.18v117.91c0,9.24,4.81,17.37,12.94,22.18ZM1438.25,1110.97c9.24-7.76,15.16-18.85,15.9-31.05v-29.2c-1.48-22.55-20.7-41.03-44.72-41.03-30.68,0-55.81,25.13-55.81,55.44,0,25.87,19.59,48.79,44.72,53.96h-.37c.74.37,1.48.37,2.22.37q.74.37,1.47.37c3.33.74,6.66,1.11,8.87,1.11,9.98,0,19.59-3.33,28.09-9.98h-.37Z" fill="#c688eb"/><path d="M700.19,1001.16c0-3.33,2.22-5.55,5.18-5.55s5.55-2.59,5.55-5.54v-15.15c0-3.33,2.22-5.55,5.54-5.55h14.05c2.96,0,5.17,2.22,5.17,5.55v15.15c0,17.37-12.93,30.31-30.31,30.31-2.96,0-5.18-2.22-5.18-5.18v-14.04Z" fill="#c688eb"/></g></g></svg>