<?xml version="1.0" encoding="UTF-8"?><svg id="a" xmlns="http://www.w3.org/2000/svg" viewBox="0 0 235 235"><path d="M102.5,131.5c0-11.67,0-23.34-.01-35.01,0-.8.22-1.07,1.04-1.06,6.51.03,13.03.03,19.54,0,.78,0,1.01.24,1,1.02-.04,2.76-.02,5.53,0,8.29,0,.18.42.28.51.13,4.25-6.85,10.6-10.41,18.44-10.99,7.89-.58,15.58.35,21.66,6.27,5.09,4.96,6.8,11.44,7.29,18.18,1.16,16.15.26,32.34.52,48.5,0,.54-.18.66-.68.65-7.06-.01-14.11-.02-21.17,0-.83,0-.76-.45-.76-.98,0-12.95.02-25.91-.03-38.86-.03-8.02-3.14-12.91-8.72-13.93-8.9-1.63-15.66,3.63-15.84,12.72-.27,13.36-.25,26.72-.32,40.09,0,.79-.21.98-.99.97-6.83-.03-13.67-.03-20.5,0-.79,0-.99-.22-.99-.99.02-11.67.02-23.34.02-35.01Z" fill="#fff" stroke="#0a0a0a" stroke-miterlimit="10" stroke-width="5.5"/><path d="M66.21,131.53c0-11.72,0-23.44-.02-35.16,0-.76.22-.95.96-.95,6.83.03,13.67.03,20.5,0,.77,0,1.02.22,1.02,1.01-.02,23.39-.02,46.78,0,70.16,0,.72-.22.9-.93.9-6.88-.03-13.77-.03-20.65,0-.7,0-.91-.16-.9-.89.02-11.69.02-23.39.02-35.08Z" fill="#fff" stroke="#0a0a0a" stroke-miterlimit="10" stroke-width="5.5"/><path d="M64.43,72.74c0-7.25,5.77-13.01,13.02-13,7.2,0,13.18,5.94,13.13,13.05-.05,7.14-6.03,13.1-13.14,13.1-7.2,0-13.02-5.88-13.01-13.15Z" fill="#fff" stroke="#0a0a0a" stroke-miterlimit="10" stroke-width="5.5"/></svg>