<?xml version="1.0" encoding="UTF-8"?><svg id="a" xmlns="http://www.w3.org/2000/svg" viewBox="0 0 235 235"><path d="M154.25,88.88c-5.88,0-11.76-.11-17.64.04-2.94.08-4.27-1.03-4.11-3.95.04-.65-.01-1.31,0-1.96.02-5.55.14-5.68,5.85-5.69,11.11-.01,22.21-.03,33.32.01,4.52.02,4.59.08,4.58,4.7-.02,7.8.62,6.76-6.8,6.83-5.06.05-10.13.01-15.19,0Z" fill="#fff" stroke="#0a0a0a" stroke-miterlimit="10" stroke-width="5.5"/><path d="M115.98,128.61c-1.99-6.22-6.14-10.63-12.6-13.67,4.61-3.38,8.07-6.76,9.7-11.64,5.11-15.31-5.76-30.5-22.31-30.82-12.41-.23-24.82-.09-37.24-.06-4.18.01-4.51.25-4.52,4.44-.06,26.46,0,52.92-.07,79.38,0,3.26,1.04,4.66,4.51,4.67,13.87.03,27.76.82,41.6-.55,15.52-1.54,25.64-17.02,20.94-31.75ZM70.04,87.83c2.77.07,15.78-.51,19.46.86,5.11,1.9,6.76,4.47,6.29,10.61-.33,4.37-3.59,8.09-8.09,8.36-5.69.34-11.42.12-17.13.16-2.14.02-2.82-1.19-2.82-3.11,0-4.9.01-9.79-.08-14.69-.03-1.77.77-2.24,2.37-2.2ZM89.65,144.83c-6.34.47-12.73.15-19.1.21-2.18.02-2.79-1.23-2.79-3.13.02-4.9.05-9.8-.01-14.7-.03-2.61,1.36-3.4,3.7-3.36,2.94.05,14.72.02,17.64.26,5.69.46,9.54,4.72,9.63,10.38.09,5.39-3.49,9.93-9.06,10.34Z" fill="#fff" stroke="#0a0a0a" stroke-miterlimit="10" stroke-width="5.5"/><path d="M184.97,121.17c-3.73-17.49-16.39-25.51-32.03-24.75-13.15.63-22.77,7.93-27.22,20.5-4.54,12.84-2.97,25.12,6.23,35.7,7.97,9.15,18.6,11.21,29.88,9.49,9.84-1.5,17.5-6.91,21.94-16.15,2.16-4.5,1.52-5.48-3.35-5.6-2.77-.07-5.56.07-8.33-.04-2.8-.11-4.81.87-6.81,2.99-6.59,6.99-18.52,4.71-22.45-4.08-1.6-3.58-1.2-4.33,2.67-4.38,5.88-.08,11.76-.02,17.64-.02h0c6.04-.01,12.09-.06,18.13-.03,4.33.02,4.52-.5,4.75-4.9.16-2.99-.45-5.87-1.06-8.71ZM166.34,120.51c-.13,1.33-2.85,1.12-4.36,1.13-6.37.08-12.75.03-19.61.03-.16,0-.29-.17-.24-.32,2.97-9.19,11.69-12.82,19.36-8.62,1.44.79,2.68,1.89,3.52,3.3.81,1.37,1.46,3.11,1.33,4.47Z" fill="#fff" stroke="#0a0a0a" stroke-miterlimit="10" stroke-width="5.5"/></svg>