<?xml version="1.0" encoding="UTF-8"?><svg id="a" xmlns="http://www.w3.org/2000/svg" viewBox="0 0 235 235"><path d="M99.5,233.24c0-22.85,0-45.69,0-68.54,0-.98-.53-1.03-1.27-1.03-7.76.01-15.52,0-23.28.03-.91,0-1.25-.17-1.25-1.18.04-9.08.03-18.16,0-27.24,0-.86.23-1.12,1.1-1.12,7.76.03,15.52,0,23.27.04,1.08,0,1.38-.31,1.42-1.4.46-11.79-1.48-23.73,1.87-35.35,4.41-15.28,17.38-24.8,33.79-25.09,8.17-.14,16.26.61,24.32,1.82.85.13,1.21.42,1.2,1.38-.04,7.56-.04,15.12,0,22.68,0,.99-.25,1.24-1.25,1.28-6.68.28-13.54-1.15-19.96,1.63-6.26,2.71-8,8.2-8.1,14.43-.1,5.81,0,11.62-.04,17.43,0,.93.34,1.18,1.22,1.18,8.62-.02,17.23-.01,25.85-.02.66,0,1.17-.02,1.02.93-1.13,7.19-2.58,16.32-4.26,27.42-.14.94-.48,1.17-1.37,1.17-7.03-.03-14.06,0-21.1-.04-1.02,0-1.38.27-1.38,1.34.03,22.65.03,45.29,0,67.94" fill="#fff" stroke="#0a0a0a" stroke-miterlimit="10" stroke-width="5.5"/></svg>