<?xml version="1.0" encoding="UTF-8"?><svg id="a" xmlns="http://www.w3.org/2000/svg" viewBox="0 0 235 235"><path d="M84.73,109.98c0,.09.11.12.16.04,5.73-9.19,12.1-19,20.02-27.66,5.76-6.3,11.72-12.64,20.59-14.2,11.75-2.06,19.74,5.51,20.73,18.8.41,5.52.2,10.98-.57,16.43-.01.09.09.13.15.07,4.39-5.06,8.59-10.24,13.18-15.05,6.32-6.64,12.94-13.06,21.87-16.15,4.67-1.62,9.49-1.68,13,2.48,3.49,4.16,2.63,9.08-.07,12.99-14.48,20.95-26.33,43.36-37.88,66-4.81,9.43-14.32,13.49-22.61,11.51-8.85-2.11-15.94-11.18-16.87-21.88-.46-5.27-.59-10.56-.89-16.41,0-.09-.13-.12-.17-.04-3.18,6.28-6.22,12.25-9.23,18.23-3.54,7.02-6.75,14.23-10.66,21.04-4.71,8.21-11.59,13.69-21.63,13.2-10.43-.5-16.5-7.22-20.53-15.94-7.78-16.83-8-34.85-7.43-52.88.3-9.43,1.37-18.79,5.56-27.45,4.25-8.79,11.9-12.72,20.66-10.8,7.7,1.68,12.49,8.49,12.62,18.14.09,6.72.02,13.45.02,19.53Z" fill="#fff" stroke="#0a0a0a" stroke-miterlimit="10" stroke-width="5.5"/></svg>